<?xml version="1.0" encoding="utf-8"?>
<!-- Generator: Adobe Illustrator 25.4.1, SVG Export Plug-In . SVG Version: 6.00 Build 0)  -->
<svg version="1.1" id="레이어_1" xmlns="http://www.w3.org/2000/svg" xmlns:xlink="http://www.w3.org/1999/xlink" x="0px"
	 y="0px" viewBox="0 0 25.4 25.4" style="enable-background:new 0 0 25.4 25.4;" xml:space="preserve">
<style type="text/css">
	.st0{fill:#FFFFFF;stroke:#5A5A5A;stroke-width:1.5;stroke-miterlimit:10;}
	.st1{fill:#1DA2F2;}
</style>
<path class="st0" d="M22.4,24.7H3c-1.3,0-2.3-1-2.3-2.3V3.1c0-1.3,1-2.3,2.3-2.3h19.3c1.3,0,2.3,1,2.3,2.3v19.3
	C24.6,23.6,23.6,24.7,22.4,24.7z"/>
<g>
	<path class="st1" d="M15.3,7.9c0.6,0,1.2,0.2,1.7,0.7c0.1,0.1,0.2,0.1,0.2,0.1h0.1c0.4-0.1,0.8-0.3,1.2-0.5c0,0,0.1,0,0.2-0.1
		c-0.2,0.6-0.5,1-1,1.4c0.4,0,0.8-0.1,1.1-0.3l0.1-0.1c0,0,0,0,0.1,0c-0.3,0.5-0.7,0.9-1.2,1.2c-0.1,0.1-0.1,0.1,0,0.2
		c0,1.9-0.6,3.6-1.8,5s-2.7,2.1-4.4,2.4c-0.3,0-0.7,0.1-1,0.1c-1.3,0-2.5-0.3-3.6-1c-0.1,0-0.2-0.1-0.2-0.1c0.2,0,0.3,0,0.5,0l0,0
		c1.1,0,2.1-0.3,3-0.9c0,0,0.1-0.1,0.2-0.1c-0.2,0-0.4,0-0.5-0.1c-0.8-0.2-1.4-0.7-1.8-1.5c0-0.1-0.1-0.2,0-0.2c0,0,0,0,0.1,0
		s0.2,0,0.3,0c0.2,0,0.4,0,0.6-0.1c-1.3-0.4-1.9-1.2-2-2.5c0.4,0.2,0.7,0.3,1.1,0.3c-1.1-1-1.4-2.1-0.7-3.4c0.3,0.3,0.6,0.7,0.9,0.9
		c1.2,1,2.6,1.6,4.1,1.7c0.1,0,0.1,0,0.1,0c0.1,0,0.1,0,0.1-0.2c-0.2-1.1,0.4-2.1,1.3-2.6C14.4,8,14.9,7.9,15.3,7.9 M18.7,8.1
		L18.7,8.1 M19.1,9.2L19.1,9.2L19.1,9.2L19.1,9.2 M6.7,16.9L6.7,16.9L6.7,16.9L6.7,16.9 M15.3,6.4c-0.7,0-1.3,0.2-1.9,0.5
		c-1,0.5-1.7,1.4-2,2.4c-0.7-0.2-1.4-0.6-2-1.1C9.1,8,8.9,7.8,8.6,7.4C8.4,7.1,7.9,6.9,7.5,6.9c-0.1,0-0.1,0-0.2,0
		C6.8,7,6.4,7.3,6.1,7.8c-0.5,1.1-0.6,2.1-0.3,3c-0.1,0.2-0.2,0.5-0.2,0.8c0.1,1,0.4,1.9,0.9,2.5c0,0.2,0,0.5,0.2,0.8
		c0.1,0.2,0.2,0.4,0.3,0.6H6.9H6.8H6.7c-0.3,0-0.7,0.1-0.9,0.3l0,0c-0.5,0.4-0.7,1.1-0.5,1.7c0.1,0.2,0.2,0.4,0.3,0.5
		c0.2,0.3,0.5,0.4,0.6,0.4c1.3,0.8,2.8,1.2,4.3,1.2c0.4,0,0.8,0,1.2-0.1c2.2-0.3,4-1.2,5.4-2.9c1.4-1.6,2.1-3.4,2.2-5.4
		c0.4-0.4,0.7-0.8,0.9-1.1l0,0l0,0l0,0c0.4-0.6,0.4-1.3,0-1.8V8.2c0-0.8-0.7-1.5-1.5-1.5l0,0h-0.1c-0.2,0-0.4,0.1-0.6,0.2l0,0
		L17.9,7c-0.2,0-0.3,0-0.4,0.1C16.8,6.7,16,6.4,15.3,6.4L15.3,6.4z"/>
</g>
</svg>
