<?xml version="1.0" encoding="utf-8"?>
<!-- Generator: Adobe Illustrator 25.4.1, SVG Export Plug-In . SVG Version: 6.00 Build 0)  -->
<svg version="1.1" id="레이어_1" xmlns="http://www.w3.org/2000/svg" xmlns:xlink="http://www.w3.org/1999/xlink" x="0px"
	 y="0px" viewBox="0 0 25.4 25.4" style="enable-background:new 0 0 25.4 25.4;" xml:space="preserve">
<style type="text/css">
	.st0{fill:#FFFFFF;stroke:#5A5A5A;stroke-width:1.5;stroke-miterlimit:10;}
	.st1{fill:none;stroke:url(#SVGID_1_);stroke-width:1.875;stroke-miterlimit:10;}
	.st2{fill:#9A38B9;}
</style>
<g>
	<path class="st0" d="M7.1,24.6c-3.5,0-6.3-2.8-6.3-6.3V7.1c0-3.5,2.8-6.3,6.3-6.3h11.3c3.5,0,6.3,2.8,6.3,6.3v11.3
		c0,3.5-2.8,6.3-6.3,6.3H7.1V24.6z"/>
	
		<linearGradient id="SVGID_1_" gradientUnits="userSpaceOnUse" x1="8.0549" y1="10.6549" x2="17.3451" y2="19.9451" gradientTransform="matrix(1 0 0 -1 0 28)">
		<stop  offset="0" style="stop-color:#FBB14C"/>
		<stop  offset="1" style="stop-color:#DA2F75"/>
	</linearGradient>
	<path class="st1" d="M12.7,18.3c-3.1,0-5.6-2.5-5.6-5.6l0,0c0-3.1,2.5-5.6,5.6-5.6l0,0c3.1,0,5.6,2.5,5.6,5.6l0,0
		C18.3,15.8,15.8,18.3,12.7,18.3L12.7,18.3z"/>
	<circle class="st2" cx="19.5" cy="5.6" r="1.4"/>
</g>
</svg>
