<?xml version="1.0" encoding="utf-8"?>
<!-- Generator: Adobe Illustrator 25.4.1, SVG Export Plug-In . SVG Version: 6.00 Build 0)  -->
<svg version="1.1" id="레이어_1" xmlns="http://www.w3.org/2000/svg" xmlns:xlink="http://www.w3.org/1999/xlink" x="0px"
	 y="0px" viewBox="0 0 25.4 25.4" style="enable-background:new 0 0 25.4 25.4;" xml:space="preserve">
<style type="text/css">
	.st0{fill:none;stroke:#3D5A98;stroke-width:1.5;stroke-linecap:round;stroke-miterlimit:10;}
	.st1{fill:#FFFFFF;stroke:#5A5A5A;stroke-width:1.5;stroke-miterlimit:10;}
	.st2{fill:none;stroke:#3D5A98;stroke-width:1.5;stroke-linecap:round;stroke-linejoin:round;stroke-miterlimit:10;}
</style>
<path class="st0" d="M12.7,24.6H3.4c-1.4,0-2.6-1.2-2.6-2.6V3.4C0.8,2,2,0.8,3.4,0.8H22c1.4,0,2.6,1.2,2.6,2.6V22
	c0,1.4-1.2,2.6-2.6,2.6h-5.7"/>
<path class="st1" d="M12.7,24.6H3.4c-1.4,0-2.6-1.2-2.6-2.6V3.4C0.8,2,2,0.8,3.4,0.8H22c1.4,0,2.6,1.2,2.6,2.6V22
	c0,1.4-1.2,2.6-2.6,2.6h-5.7"/>
<path class="st2" d="M12.7,24.6v-9.5H9.9v-3.8h2.8v-3C12.7,7,13.7,6,15,6h4.3v3.3h-2.6c-0.2,0-0.3,0.2-0.3,0.3v1.8h2.9l-1,3.9h-1.9
	v9.3"/>
</svg>
