<?xml version="1.0" encoding="utf-8"?>
<!-- Generator: Adobe Illustrator 25.4.1, SVG Export Plug-In . SVG Version: 6.00 Build 0)  -->
<svg version="1.1" id="레이어_1" xmlns="http://www.w3.org/2000/svg" xmlns:xlink="http://www.w3.org/1999/xlink" x="0px"
	 y="0px" viewBox="0 0 33.8 33.8" style="enable-background:new 0 0 33.8 33.8;" xml:space="preserve">
<style type="text/css">
	.st0{fill:#FFFFFF;stroke:#B0B0B0;stroke-width:2;stroke-miterlimit:10;}
	.st1{fill:none;stroke:url(#SVGID_1_);stroke-width:2.5;stroke-miterlimit:10;}
	.st2{fill:#9A38B9;}
</style>
<g>
	<path class="st0" d="M9.4,32.8c-4.6,0-8.4-3.8-8.4-8.4v-15C1,4.8,4.8,1,9.4,1h15c4.6,0,8.4,3.8,8.4,8.4v15c0,4.6-3.8,8.4-8.4,8.4
		H9.4z"/>
	<linearGradient id="SVGID_1_" gradientUnits="userSpaceOnUse" x1="10.7273" y1="23.1143" x2="23.1143" y2="10.7273">
		<stop  offset="0" style="stop-color:#FBB14C"/>
		<stop  offset="1" style="stop-color:#DA2F75"/>
	</linearGradient>
	<path class="st1" d="M16.9,24.4c-4.1,0-7.5-3.4-7.5-7.5v0c0-4.1,3.4-7.5,7.5-7.5h0c4.1,0,7.5,3.4,7.5,7.5v0
		C24.4,21.1,21.1,24.4,16.9,24.4L16.9,24.4z"/>
	<circle class="st2" cx="26" cy="7.5" r="1.8"/>
</g>
<g>
</g>
<g>
</g>
<g>
</g>
<g>
</g>
<g>
</g>
<g>
</g>
<g>
</g>
<g>
</g>
<g>
</g>
<g>
</g>
<g>
</g>
<g>
</g>
<g>
</g>
<g>
</g>
<g>
</g>
</svg>
