<?xml version="1.0" encoding="utf-8"?>
<!-- Generator: Adobe Illustrator 25.4.1, SVG Export Plug-In . SVG Version: 6.00 Build 0)  -->
<svg version="1.1" id="레이어_1" xmlns="http://www.w3.org/2000/svg" xmlns:xlink="http://www.w3.org/1999/xlink" x="0px"
	 y="0px" viewBox="0 0 33.8 33.8" style="enable-background:new 0 0 33.8 33.8;" xml:space="preserve">
<style type="text/css">
	.st0{fill:#FFFFFF;stroke:#B0B0B0;stroke-width:2;stroke-linecap:round;stroke-linejoin:round;stroke-miterlimit:10;}
	.st1{fill:none;stroke:#3D5A98;stroke-width:2.5;stroke-linecap:round;stroke-linejoin:round;stroke-miterlimit:10;}
</style>
<g>
	<path class="st0" d="M16.9,32.8H4.5c-1.9,0-3.5-1.6-3.5-3.5V4.5C1,2.6,2.6,1,4.5,1h24.9c1.9,0,3.5,1.6,3.5,3.5v24.9
		c0,1.9-1.6,3.5-3.5,3.5h-7.6"/>
	<path class="st1" d="M16.9,32.6V19.9h-3.7v-5h3.7v-4.4c0-1.7,1.4-3.1,3.1-3.1h5.7v4.6h-3.5c-0.2,0-0.5,0.2-0.5,0.5v2.4h3.9
		l-1.4,5.2h-2.6v12.4"/>
</g>
<g>
</g>
<g>
</g>
<g>
</g>
<g>
</g>
<g>
</g>
<g>
</g>
<g>
</g>
<g>
</g>
<g>
</g>
<g>
</g>
<g>
</g>
<g>
</g>
<g>
</g>
<g>
</g>
<g>
</g>
</svg>
